<svg width="26" height="22" viewBox="0 0 26 22" fill="none" xmlns="http://www.w3.org/2000/svg">
<path d="M25.4869 1.26266C25.1815 0.889206 24.7241 0.683594 24.1988 0.683594C23.9133 0.683594 23.6108 0.743675 23.2999 0.862503L2.13789 8.9407C1.01484 9.36928 0.863588 10.0124 0.873315 10.3577C0.883042 10.7029 1.07053 11.3365 2.21609 11.701C2.22295 11.7031 2.22982 11.7052 2.23669 11.7071L6.62626 12.9633L9.00014 19.7515C9.32382 20.677 10.0503 21.2519 10.8964 21.2519C11.4299 21.2519 11.9546 21.0283 12.4139 20.6057L15.129 18.1057L19.0671 21.2767C19.0675 21.277 19.0681 21.2772 19.0685 21.2776L19.1058 21.3078C19.1093 21.3104 19.1129 21.3133 19.1163 21.316C19.5541 21.6555 20.0319 21.8348 20.4986 21.8349H20.4988C21.4107 21.8349 22.1368 21.1599 22.3483 20.1155L25.8157 2.99435C25.9549 2.30713 25.8382 1.6922 25.4869 1.26266ZM8.09473 12.7247L16.5635 8.39825L11.2903 14.0015C11.2039 14.0932 11.1427 14.2056 11.1125 14.3278L10.0957 18.4465L8.09473 12.7247ZM11.4215 19.528C11.3864 19.5602 11.3511 19.589 11.3159 19.6156L12.2592 15.7948L13.9753 17.1766L11.4215 19.528ZM24.38 2.70348L20.9127 19.8248C20.8793 19.9886 20.7727 20.3699 20.4986 20.3699C20.3632 20.3699 20.193 20.2961 20.0189 20.162L15.5565 16.5689C15.5559 16.5684 15.5551 16.5678 15.5544 16.5674L12.8991 14.4293L20.5249 6.32629C20.7691 6.06689 20.7912 5.66959 20.5774 5.38464C20.3634 5.09968 19.9756 5.01003 19.6584 5.17216L7.11607 11.5797L2.66679 10.3067L23.8223 2.23103C24.0011 2.16274 24.1258 2.14844 24.1988 2.14844C24.2437 2.14844 24.3234 2.15378 24.353 2.19021C24.3919 2.2377 24.4415 2.39964 24.38 2.70348Z" fill="#437FC8"/>
</svg>
